classDiagram
    direction LR

    class AuthIdentity {
        <<Bounded Context>>
        +Subdominio: Soporte
        +Aggregate Root: User
        +Value Objects: Email, HashedPassword
    }

    class SocialConnect {
        <<Core Domain>>
        +Subdominio: Principal
        +Aggregate Roots: Publication, UserNode
        +Value Objects: Location, MediaType
    }

    class MessagingService {
        <<Bounded Context>>
        +Subdominio: Soporte
        +Aggregate Root: Conversation
        +Value Objects: MessageStatus, Role
    }

    class RiskMitigation {
        <<Bounded Context>>
        +Subdominio: Core (Soporte)
        +Aggregate Root: RiskProfile
        +Value Objects: RiskScore, AnalysisResult
    }

    class ResourcesDocs {
        <<Bounded Context>>
        +Subdominio: Soporte
        +Aggregate Root: Resource
        +Value Objects: Category, ContentBlock
    }

    class PasswordGuardian {
        <<Generic Subdomain>>
        +Value Objects: PasswordToCheck
    }

    %% Relaciones de Dependencia
    SocialConnect ..> AuthIdentity : "usa identidad de"
    MessagingService ..> AuthIdentity : "usa identidad de"
    RiskMitigation ..> AuthIdentity : "usa identidad de"
    AuthIdentity ..> PasswordGuardian : "valida con"
    RiskMitigation ..> SocialConnect : "analiza"
    RiskMitigation ..> ResourcesDocs : "sugiere"
